<?xml version="1.0" encoding="utf-8"?>
<!-- Generator: Adobe Illustrator 27.5.0, SVG Export Plug-In . SVG Version: 6.00 Build 0)  -->
<svg version="1.1" xmlns="http://www.w3.org/2000/svg" xmlns:xlink="http://www.w3.org/1999/xlink" x="0px" y="0px"
	 viewBox="0 0 500 500" style="enable-background:new 0 0 500 500;" xml:space="preserve">
<g id="Floor">
	<path id="XMLID_14240_" style="fill:#F5F5F5;" d="M91.005,410.154c87.285,45.598,228.803,45.6,316.087,0.001
		c87.285-45.6,87.285-119.529,0-165.128c-87.285-45.599-228.803-45.599-316.088-0.001C3.719,290.625,3.719,364.556,91.005,410.154z"
		/>
</g>
<g id="Shadow">
	<path id="XMLID_14504_" style="fill:#E6E6E6;" d="M363.403,331.214c10.354,4.935,27.14,4.935,37.494,0
		c10.354-4.934,10.354-12.935,0-17.87c-10.354-4.934-27.14-4.934-37.494,0C353.049,318.279,353.049,326.28,363.403,331.214z"/>
</g>
<g id="Cloud">
	<path id="XMLID_14197_" style="fill:#F0F0F0;" d="M384.663,102.322l3.796,1.46V95.42c0-6.629,5.287-8.218,11.028-4.904l0,0
		c5.741,3.314,10.394,11.375,10.394,18.003v1.214c1.303-0.519,2.984-0.318,4.824,0.744l0,0c4.131,2.385,7.48,8.185,7.48,12.955
		v0.552l5.292,3.056c2.72,1.571,4.926,5.39,4.926,8.531c0,3.141-2.205,4.414-4.926,2.844l-42.813-24.718
		c-2.72-1.571-4.926-5.39-4.926-8.531C379.737,102.024,381.943,100.751,384.663,102.322z"/>
</g>
<g id="Plants">
	<g>
		<g>
			<g id="XMLID_19047_">
				<path id="XMLID_19054_" style="fill:#27DEBF;" d="M85.28,361.988l7.013-4.007c0,0,3.364-18.536,0.848-34.47
					c-3.537-22.402-18.79-30.13-24.33-27.903c-5.54,2.227-6.842,8.863,3.163,21.808C77.877,325.053,85.469,341.197,85.28,361.988z"
					/>
			</g>
			<g id="XMLID_2_" style="opacity:0.1;">
				<path id="XMLID_3_" d="M85.28,361.988l7.013-4.007c0,0,3.364-18.536,0.848-34.47c-3.537-22.402-18.79-30.13-24.33-27.903
					c-5.54,2.227-6.842,8.863,3.163,21.808C77.877,325.053,85.469,341.197,85.28,361.988z"/>
			</g>
		</g>
		<g id="XMLID_917_">
			<path id="XMLID_14242_" style="fill:#FFFFFF;" d="M88.457,355.063c-0.014,0-0.028,0-0.042-0.001
				c-0.384-0.023-0.678-0.352-0.656-0.738c1.624-27.905-3.707-44.419-17.822-55.221c-0.306-0.235-0.365-0.673-0.131-0.978
				c0.235-0.307,0.675-0.364,0.978-0.131c14.527,11.118,20.02,27.989,18.367,56.412C89.13,354.776,88.823,355.063,88.457,355.063z"
				/>
		</g>
		<g id="XMLID_19010_">
			<path id="XMLID_18997_" style="fill:#27DEBF;" d="M65.822,373.229c-1.108,0.636-3.392-0.755-4.267-1.342
				c-1.498-1.005-2.711-2.428-3.517-4.037c-0.938-1.873-1.174-3.88-0.881-5.952c0.152-1.074,0.453-2.122,0.753-3.165
				c0.294-1.024,0.589-2.048,0.883-3.072c0.29-1.01,0.584-2.056,0.45-3.099c-0.269-2.101-2.134-3.573-3.829-4.842
				c-1.875-1.404-3.827-3.257-3.817-5.787c0.008-1.952,1.019-3.764,2.228-5.296c1.209-1.532,2.645-2.885,3.738-4.502
				c0.787-1.164,1.401-2.531,1.273-3.93c-0.079-0.869-0.44-1.688-0.856-2.455c-0.893-1.647-2.071-3.156-2.687-4.925
				c-0.616-1.769-0.528-3.97,0.853-5.236c1.133-1.039,2.818-1.184,4.352-1.083c1.419,0.094,2.806,0.734,4.048,1.425
				c4.015,2.233,6.307,6.989,10.569,8.707c1.644,0.663,3.444,0.808,5.158,1.261c1.713,0.453,3.46,1.328,4.254,2.913
				c1.564,3.124-1.339,6.975-0.239,10.291c0.973,2.935,3.825,4.058,5.426,6.703c0.701,1.157,0.862,2.494,0.749,3.842
				c-0.191,2.281-0.525,3.955-1.62,6.492c-0.905,2.096-3.563,5.849-3.563,5.849C85.213,362.054,65.992,373.131,65.822,373.229z"/>
			<g id="XMLID_19001_">
				<path id="XMLID_14241_" style="fill:#FFFFFF;" d="M77.302,367.292c-0.03,0-0.059-0.002-0.089-0.006
					c-0.382-0.048-0.653-0.397-0.604-0.78c2.027-16.075-5.639-37.751-17.088-48.318c-0.284-0.261-0.301-0.702-0.04-0.985
					c0.263-0.285,0.702-0.301,0.985-0.04c11.94,11.019,19.639,32.771,17.526,49.518C77.949,367.034,77.649,367.292,77.302,367.292z"
					/>
			</g>
			<g id="XMLID_19011_">
				<path id="XMLID_14221_" style="fill:#FFFFFF;" d="M75.303,346.315c-0.147,0-0.293-0.045-0.418-0.14
					c-6.107-4.58-15.844-3.744-15.94-3.735c-0.384,0.046-0.723-0.247-0.758-0.631c-0.035-0.383,0.247-0.723,0.631-0.758
					c0.423-0.041,10.374-0.891,16.904,4.008c0.309,0.231,0.372,0.668,0.14,0.976C75.725,346.219,75.515,346.315,75.303,346.315z"/>
			</g>
			<g id="XMLID_19012_">
				<path id="XMLID_14220_" style="fill:#FFFFFF;" d="M74.33,342.296c-0.009,0-0.018,0-0.027-0.001
					c-0.385-0.015-0.685-0.339-0.669-0.724c0.313-8.043,6.203-12.742,6.454-12.939c0.305-0.234,0.742-0.182,0.978,0.119
					c0.237,0.303,0.184,0.742-0.118,0.98c-0.057,0.044-5.633,4.514-5.922,11.894C75.013,342.001,74.703,342.296,74.33,342.296z"/>
			</g>
		</g>
	</g>
	<g id="XMLID_14181_">
		<g id="XMLID_14165_">
			<g>
				<path id="XMLID_14167_" style="fill:#27DEBF;" d="M397.574,306.977c0.282-3.505,2.984-9.486,6.988-13.745
					c4.004-4.259,10.408-6.311,14.359-4.595c3.68,1.599,2.871,6.53-1.985,9.45c-4.855,2.92-12.089,6.497-14.565,12.021l-4.797,6.636
					V306.977z"/>
				<path id="XMLID_1_" style="opacity:0.1;" d="M397.574,306.977c0.282-3.505,2.984-9.486,6.988-13.745
					c4.004-4.259,10.408-6.311,14.359-4.595c3.68,1.599,2.871,6.53-1.985,9.45c-4.855,2.92-12.089,6.497-14.565,12.021l-4.797,6.636
					V306.977z"/>
			</g>
			<g id="XMLID_14166_">
				<path id="XMLID_14161_" style="fill:#FFFFFF;" d="M397.574,313.37c-0.021,0-0.043-0.001-0.064-0.004
					c-0.263-0.036-0.448-0.278-0.413-0.541c1.75-12.977,14.942-22.009,20.186-23.007c0.262-0.053,0.513,0.123,0.562,0.382
					c0.05,0.262-0.121,0.513-0.382,0.562c-4.891,0.931-17.751,9.861-19.413,22.191C398.018,313.195,397.812,313.37,397.574,313.37z"
					/>
			</g>
		</g>
		<g id="XMLID_14162_">
			<path id="XMLID_14164_" style="fill:#27DEBF;" d="M398.098,321.449c0.722-1.925,3.39-4.983,7.499-7.357
				c4.545-2.625,10.105-3.553,11.547-5.765c1.733-2.657-0.398-5.47-4.866-5.277c-4.468,0.193-12.731,5.603-14.705,14.59
				L398.098,321.449z"/>
			<g id="XMLID_14163_">
				<path id="XMLID_14154_" style="fill:#FFFFFF;" d="M397.78,319.587c-0.03,0-0.063-0.003-0.094-0.009
					c-0.26-0.052-0.429-0.305-0.378-0.566c1.324-6.653,10.972-13.547,17.206-13.836c0.244,0.002,0.491,0.193,0.503,0.458
					c0.011,0.265-0.193,0.491-0.458,0.503c-5.787,0.268-15.082,6.9-16.308,13.063C398.206,319.429,398.006,319.587,397.78,319.587z"
					/>
			</g>
		</g>
	</g>
</g>
<g id="Document">
	<g id="XMLID_14182_">
		<g id="XMLID_819_">
			<path id="XMLID_818_" style="fill:#E0E0E0;" d="M227.625,361.893l0,0.402c0,0.643,0.451,1.424,1.008,1.745l59.432,34.313
				c0.557,0.321,1.459,0.321,2.016,0l87.793-50.687c0.557-0.321,1.008-1.103,1.008-1.745v-0.402c0-0.643-0.451-1.424-1.008-1.745
				l-59.432-34.314c-0.557-0.321-1.459-0.321-2.016,0l-87.793,50.687C228.077,360.469,227.625,361.25,227.625,361.893z"/>
			<path id="XMLID_822_" style="fill:#E6E6E6;" d="M227.625,361.893v0.402c0,0.643,0.451,1.424,1.008,1.745l59.432,34.313
				c0.279,0.161,0.644,0.241,1.008,0.241v-7.846L232.352,358l-3.719,2.147C228.077,360.469,227.625,361.25,227.625,361.893z"/>
			<path id="XMLID_815_" style="fill:#FFFFFF;" d="M228.633,361.311l59.433,34.313c0.557,0.321,1.459,0.321,2.016,0l87.793-50.687
				c0.557-0.321,0.557-0.842,0-1.164l-59.432-34.314c-0.557-0.321-1.459-0.321-2.016,0l-87.793,50.687
				C228.077,360.469,228.077,360.99,228.633,361.311z"/>
		</g>
		<g id="XMLID_823_">
			<path id="XMLID_821_" style="fill:#EBEBEB;" d="M304.358,374.958l-40.021-23.106c-0.696-0.402-0.731-1.033-0.078-1.41
				s1.746-0.357,2.441,0.045l40.021,23.106c0.696,0.402,0.731,1.033,0.078,1.409C306.147,375.38,305.054,375.36,304.358,374.958z"/>
			<path id="XMLID_852_" style="fill:#E0E0E0;" d="M275.947,377.705l-19.738-11.396c-0.696-0.402-0.731-1.033-0.078-1.41
				c0.653-0.377,1.746-0.357,2.441,0.045l19.738,11.396c0.696,0.402,0.731,1.033,0.078,1.41
				C277.735,378.127,276.642,378.107,275.947,377.705z"/>
			<path id="XMLID_30_" style="fill:#EBEBEB;" d="M281.614,374.674l-13.885-8.017c-0.489-0.283-0.514-0.727-0.055-0.991
				c0.459-0.265,1.228-0.251,1.717,0.032l13.885,8.017c0.489,0.283,0.514,0.727,0.055,0.992
				C282.872,374.971,282.103,374.956,281.614,374.674z"/>
			<path id="XMLID_829_" style="fill:#EBEBEB;" d="M311.46,370.872l-40.021-23.106c-0.696-0.402-0.731-1.033-0.078-1.409
				c0.653-0.377,1.746-0.357,2.441,0.045l40.021,23.106c0.696,0.402,0.731,1.033,0.078,1.41
				C313.249,371.293,312.156,371.273,311.46,370.872z"/>
			<path id="XMLID_831_" style="fill:#EBEBEB;" d="M318.562,366.785l-40.022-23.106c-0.696-0.402-0.73-1.033-0.078-1.409
				c0.653-0.377,1.746-0.357,2.441,0.045l40.021,23.106c0.696,0.402,0.731,1.033,0.078,1.41
				C320.351,367.207,319.258,367.187,318.562,366.785z"/>
			<path id="XMLID_834_" style="fill:#EBEBEB;" d="M325.664,362.699l-21.135-12.235c-0.696-0.402-0.731-1.033-0.078-1.41
				c0.653-0.377,1.746-0.357,2.442,0.045l21.135,12.235c0.696,0.402,0.731,1.033,0.078,1.41
				C327.453,363.121,326.36,363.101,325.664,362.699z"/>
			<path id="XMLID_855_" style="fill:#EBEBEB;" d="M345.713,351.084l-40.022-23.106c-0.696-0.402-0.73-1.033-0.078-1.41
				c0.653-0.377,1.746-0.357,2.441,0.045l40.021,23.106c0.696,0.402,0.731,1.033,0.078,1.41
				C347.502,351.505,346.409,351.485,345.713,351.084z"/>
			<path id="XMLID_856_" style="fill:#EBEBEB;" d="M352.815,346.997l-40.021-23.106c-0.696-0.402-0.731-1.033-0.078-1.409
				c0.653-0.377,1.746-0.357,2.441,0.045l40.021,23.106c0.696,0.402,0.731,1.033,0.078,1.409
				C354.604,347.419,353.511,347.399,352.815,346.997z"/>
			<path id="XMLID_911_" style="fill:#EBEBEB;" d="M338.611,355.17l-40.022-23.106c-0.696-0.402-0.731-1.033-0.078-1.409
				c0.653-0.377,1.746-0.357,2.441,0.045l40.021,23.106c0.696,0.402,0.731,1.033,0.078,1.41
				C340.4,355.592,339.307,355.572,338.611,355.17z"/>
			<path id="XMLID_858_" style="fill:#EBEBEB;" d="M359.917,342.911l-40.022-23.106c-0.696-0.402-0.73-1.033-0.078-1.409
				c0.653-0.377,1.746-0.357,2.441,0.045l40.021,23.106c0.696,0.402,0.731,1.033,0.078,1.41
				C361.706,343.333,360.613,343.313,359.917,342.911z"/>
		</g>
		<path id="XMLID_820_" style="fill:#E0E0E0;" d="M291.455,378.435c-2.611-1.507-6.843-1.507-9.454,0
			c-2.611,1.507-2.611,3.951,0,5.458s6.843,1.507,9.453,0S294.066,379.942,291.455,378.435z"/>
	</g>
</g>
<g id="Device">
	<g id="XMLID_8318_">
		<g id="XMLID_778_">
			<path id="XMLID_106_" style="fill:#263238;" d="M228.66,250.276l-37.502,21.652c-1.391,0.803-2.742,2.738-3.016,4.321
				l-9.32,53.809c-0.274,1.583,0.632,3.518,2.023,4.321l24.181,13.961c1.391,0.803,3.647,0.803,5.039,0l51.682-29.839
				c1.391-0.803,2.519-2.676,2.519-4.184c0-1.507-1.128-3.38-2.519-4.184l-18.595-10.736c-1.391-0.803-2.651-2.75-2.814-4.349
				l-4.137-40.605c-0.163-1.598-1.353-3.505-2.658-4.259C232.237,249.432,230.051,249.473,228.66,250.276z"/>
			<path id="XMLID_117_" style="fill:#37474F;" d="M207.545,338.879l0.001,10.063c0.912,0,1.823-0.201,2.519-0.602l51.682-29.839
				c1.392-0.803,2.519-2.676,2.519-4.184c0-0.882-0.393-1.884-0.991-2.729h-8.462L207.545,338.879z"/>
			<path id="XMLID_110_" style="fill:#263238;" d="M233.387,253.005l-37.502,21.652c-1.391,0.803-2.742,2.738-3.016,4.321
				l-8.46,48.847c-0.274,1.583,0.632,3.518,2.023,4.321l18.595,10.736c1.391,0.803,3.647,0.803,5.039,0l51.682-29.839
				c1.391-0.803,1.391-2.106,0-2.909l-18.595-10.736c-1.391-0.803-2.651-2.75-2.814-4.349l-4.137-40.605
				C236.038,252.846,234.778,252.202,233.387,253.005z"/>
			<path id="XMLID_115_" style="fill:#455A64;" d="M261.747,310.134l-18.595-10.736c-0.686-0.396-1.338-1.071-1.845-1.844
				l-56.543,32.645c0.364,0.814,0.948,1.532,1.666,1.947l18.596,10.736c1.391,0.803,3.647,0.803,5.039,0l51.682-29.839
				C263.139,312.239,263.139,310.937,261.747,310.134z"/>
		</g>
		<g id="XMLID_8196_">
			<path id="XMLID_67_" style="fill:#455A64;" d="M109.485,357.296l-2.401-1.386c-1.948-1.125-3.527-3.86-3.527-6.109
				l-0.001-161.052c0-2.249,1.581-4.981,3.532-6.1L303.844,69.687c1.951-1.12,5.111-1.116,7.059,0.008l1.831,1.057
				c1.948,1.125,3.527,3.86,3.527,6.109v161.051c0,2.249-1.579,4.984-3.527,6.109L116.539,357.296
				C114.591,358.421,111.433,358.421,109.485,357.296z"/>
			<path id="XMLID_785_" style="fill:#263238;" d="M117.737,192.863l-13.145-7.589c-0.639,1.104-1.035,2.35-1.035,3.475
				l0.001,161.052c0,2.249,1.579,4.984,3.527,6.109l2.401,1.386c1.948,1.125,5.106,1.125,7.054,0l1.198-0.692L117.737,192.863z"/>
			<path id="XMLID_63_" style="fill:#37474F;" d="M113.012,355.26V194.208c0-2.249,1.579-4.985,3.527-6.109L312.734,74.825
				c1.948-1.125,3.527-0.213,3.527,2.036v161.051c0,2.249-1.579,4.984-3.527,6.109L116.539,357.296
				C114.591,358.421,113.012,357.509,113.012,355.26z"/>
			<path id="XMLID_69_" style="fill:#263238;" d="M205.139,295.23l18.595-10.736c1.391-0.803,2.519-0.233,2.519,1.274
				s-1.128,3.38-2.519,4.184l-18.595,10.736c-1.391,0.803-2.519,0.233-2.519-1.275C202.62,297.906,203.748,296.033,205.139,295.23z"
				/>
			<path id="XMLID_68_" style="fill:#FFFFFF;" d="M122.049,193.024L306.824,86.043c1.112-0.644,2.014-0.124,2.014,1.161v140.365
				c0,1.285-0.902,2.848-2.016,3.491L122.051,337.738c-1.113,0.643-2.016,0.122-2.016-1.164V196.517
				C120.035,195.232,120.937,193.668,122.049,193.024z"/>
		</g>
	</g>
</g>
<g id="Windows">
	<g>
		<g id="XMLID_728_">
			<g id="XMLID_723_">
				<path id="XMLID_112_" style="fill:#27DEBF;" d="M134.125,235.072l-1.882-1.087c-1.391-0.804-2.519-2.758-2.519-4.364l0-26.93
					c0-1.607,1.128-3.56,2.519-4.364l70.589-40.755c1.391-0.803,3.647-0.803,5.038,0.001l1.882,1.087
					c1.391,0.804,2.519,2.758,2.519,4.364l0,26.93c0,1.607-1.128,3.56-2.519,4.364l-70.589,40.755
					C137.772,235.876,135.516,235.876,134.125,235.072z"/>
				<g>
					<path id="XMLID_107_" style="opacity:0.4;fill:#27DEBF;" d="M134.125,235.072l-1.882-1.087
						c-1.391-0.804-2.519-2.758-2.519-4.364l0-26.93c0-1.607,1.128-3.56,2.519-4.364l70.589-40.755
						c1.391-0.803,3.647-0.803,5.038,0.001l1.882,1.087c1.391,0.804,2.519,2.758,2.519,4.364l0,26.93
						c0,1.607-1.128,3.56-2.519,4.364l-70.589,40.755C137.772,235.876,135.516,235.876,134.125,235.072z"/>
					<path id="XMLID_4_" style="opacity:0.3;fill:#FFFFFF;" d="M134.125,235.072l-1.882-1.087c-1.391-0.804-2.519-2.758-2.519-4.364
						l0-26.93c0-1.607,1.128-3.56,2.519-4.364l70.589-40.755c1.391-0.803,3.647-0.803,5.038,0.001l1.882,1.087
						c1.391,0.804,2.519,2.758,2.519,4.364l0,26.93c0,1.607-1.128,3.56-2.519,4.364l-70.589,40.755
						C137.772,235.876,135.516,235.876,134.125,235.072z"/>
				</g>
				<g>
					<path id="XMLID_125_" style="fill:#27DEBF;" d="M141.37,206.508l-10.909-6.299c-0.455,0.789-0.737,1.678-0.737,2.481l0,26.93
						c0,1.607,1.128,3.561,2.519,4.364l1.882,1.087c1.391,0.804,3.647,0.804,5.038,0.001l2.207-1.274L141.37,206.508z"/>
					<path id="XMLID_5_" style="opacity:0.2;" d="M141.37,206.508l-10.909-6.299c-0.455,0.789-0.737,1.678-0.737,2.481l0,26.93
						c0,1.607,1.128,3.561,2.519,4.364l1.882,1.087c1.391,0.804,3.647,0.804,5.038,0.001l2.207-1.274L141.37,206.508z"/>
				</g>
				<path id="XMLID_111_" style="fill:#27DEBF;" d="M136.644,206.688l0,26.93c0,1.607,1.128,2.258,2.519,1.455l70.589-40.755
					c1.391-0.803,2.519-2.757,2.519-4.364l0-26.93c0-1.607-1.128-2.258-2.519-1.455l-70.589,40.755
					C137.772,203.128,136.644,205.081,136.644,206.688z"/>
			</g>
			<g id="XMLID_123_">
				<path id="XMLID_118_" style="fill:#FFFFFF;" d="M166.795,191.826l24.418-14.098c0.989-0.571,1.791-0.31,1.791,0.583
					c0,0.893-0.802,2.079-1.791,2.65l-24.418,14.098c-0.989,0.571-1.791,0.31-1.791-0.583
					C165.004,193.584,165.806,192.397,166.795,191.826z"/>
				<path id="XMLID_119_" style="fill:#FFFFFF;" d="M166.516,200.178l39.517-22.816c0.835-0.482,1.512-0.262,1.512,0.492
					s-0.677,1.755-1.512,2.237l-39.517,22.815c-0.835,0.482-1.512,0.262-1.512-0.492S165.681,200.66,166.516,200.178z"/>
				<path id="XMLID_126_" style="fill:#FFFFFF;" d="M166.516,205.636l39.517-22.815c0.835-0.482,1.512-0.262,1.512,0.492
					s-0.677,1.755-1.512,2.237l-39.517,22.815c-0.835,0.482-1.512,0.262-1.512-0.492
					C165.004,207.119,165.681,206.118,166.516,205.636z"/>
				<path id="XMLID_129_" style="fill:#FFFFFF;" d="M166.516,211.094l39.517-22.816c0.835-0.482,1.512-0.262,1.512,0.492
					s-0.677,1.755-1.512,2.237l-39.517,22.815c-0.835,0.482-1.512,0.262-1.512-0.492
					C165.004,212.577,165.681,211.576,166.516,211.094z"/>
			</g>
			<g id="XMLID_114_">
				<path id="XMLID_109_" style="fill:#27DEBF;" d="M143.386,205.344l14.876-8.589c1.113-0.643,2.016-0.122,2.016,1.164l0,17.177
					c0,1.285-0.902,2.848-2.016,3.491l-14.876,8.589c-1.113,0.643-2.016,0.122-2.016-1.164l0-17.177
					C141.371,207.55,142.273,205.987,143.386,205.344z"/>
				<path id="XMLID_6_" style="opacity:0.3;fill:#FFFFFF;" d="M143.386,205.344l14.876-8.589c1.113-0.643,2.016-0.122,2.016,1.164
					l0,17.177c0,1.285-0.902,2.848-2.016,3.491l-14.876,8.589c-1.113,0.643-2.016,0.122-2.016-1.164l0-17.177
					C141.371,207.55,142.273,205.987,143.386,205.344z"/>
				<g id="XMLID_113_">
					<path id="XMLID_116_" style="fill:#FFFFFF;" d="M144.663,212.873c-0.325,0-0.631-0.079-0.906-0.238
						c-0.634-0.366-0.983-1.089-0.983-2.034c0-1.718,1.166-3.738,2.655-4.597l0,0c0.819-0.473,1.618-0.531,2.253-0.165
						c0.634,0.366,0.983,1.089,0.983,2.034c0,1.719-1.166,3.738-2.655,4.597C145.545,212.738,145.088,212.873,144.663,212.873z
						 M146.01,207.012c-1.124,0.649-2.073,2.293-2.073,3.589c0,0.505,0.147,0.879,0.401,1.026c0.257,0.147,0.653,0.087,1.09-0.165
						c1.124-0.648,2.073-2.292,2.073-3.589c0-0.505-0.147-0.879-0.401-1.026C146.844,206.7,146.447,206.76,146.01,207.012
						L146.01,207.012z"/>
				</g>
				<path id="XMLID_120_" style="fill:#FFFFFF;" d="M160.278,209.042l-2.834-3.013c-0.284-0.302-0.699-0.441-1.106-0.373
					c-0.408,0.068-0.753,0.333-0.923,0.71l-4.084,9.009l-1.979-1.793c-0.27-0.245-0.635-0.357-0.993-0.309
					c-0.361,0.048-0.682,0.251-0.88,0.557l-6.108,9.493v2.161l7.199-11.04l6.566,5.948l1.059-0.612l-3.959-3.586l4.238-9.349
					l0.122-0.02l3.682,3.914V209.042z"/>
			</g>
		</g>
		<g id="XMLID_7_">
			<g id="XMLID_21_">
				<path id="XMLID_27_" style="fill:#27DEBF;" d="M134.125,280.072l-1.882-1.087c-1.391-0.804-2.519-2.758-2.519-4.364l0-26.93
					c0-1.607,1.128-3.56,2.519-4.364l70.589-40.755c1.391-0.803,3.647-0.803,5.038,0.001l1.882,1.087
					c1.391,0.804,2.519,2.758,2.519,4.364l0,26.93c0,1.607-1.128,3.56-2.519,4.364l-70.589,40.755
					C137.772,280.876,135.516,280.875,134.125,280.072z"/>
				<g>
					<path id="XMLID_26_" style="opacity:0.4;fill:#27DEBF;" d="M134.125,280.072l-1.882-1.087
						c-1.391-0.804-2.519-2.758-2.519-4.364l0-26.93c0-1.607,1.128-3.56,2.519-4.364l70.589-40.755
						c1.391-0.803,3.647-0.803,5.038,0.001l1.882,1.087c1.391,0.804,2.519,2.758,2.519,4.364l0,26.93
						c0,1.607-1.128,3.56-2.519,4.364l-70.589,40.755C137.772,280.876,135.516,280.875,134.125,280.072z"/>
					<path id="XMLID_25_" style="opacity:0.3;fill:#FFFFFF;" d="M134.125,280.072l-1.882-1.087
						c-1.391-0.804-2.519-2.758-2.519-4.364l0-26.93c0-1.607,1.128-3.56,2.519-4.364l70.589-40.755
						c1.391-0.803,3.647-0.803,5.038,0.001l1.882,1.087c1.391,0.804,2.519,2.758,2.519,4.364l0,26.93
						c0,1.607-1.128,3.56-2.519,4.364l-70.589,40.755C137.772,280.876,135.516,280.875,134.125,280.072z"/>
				</g>
				<g>
					<path id="XMLID_24_" style="fill:#27DEBF;" d="M141.37,251.508l-10.909-6.299c-0.455,0.789-0.737,1.678-0.737,2.481l0,26.93
						c0,1.607,1.128,3.561,2.519,4.364l1.882,1.087c1.391,0.804,3.647,0.804,5.038,0.001l2.207-1.275L141.37,251.508z"/>
					<path id="XMLID_23_" style="opacity:0.2;" d="M141.37,251.508l-10.909-6.299c-0.455,0.789-0.737,1.678-0.737,2.481l0,26.93
						c0,1.607,1.128,3.561,2.519,4.364l1.882,1.087c1.391,0.804,3.647,0.804,5.038,0.001l2.207-1.275L141.37,251.508z"/>
				</g>
				<path id="XMLID_22_" style="fill:#27DEBF;" d="M136.644,251.688l0,26.93c0,1.607,1.128,2.258,2.519,1.455l70.589-40.755
					c1.391-0.803,2.519-2.757,2.519-4.364l0-26.93c0-1.607-1.128-2.258-2.519-1.455l-70.589,40.755
					C137.772,248.128,136.644,250.081,136.644,251.688z"/>
			</g>
			<g id="XMLID_16_">
				<path id="XMLID_20_" style="fill:#FFFFFF;" d="M166.795,236.826l24.418-14.098c0.989-0.571,1.791-0.31,1.791,0.583
					c0,0.893-0.802,2.079-1.791,2.65l-24.418,14.098c-0.989,0.571-1.791,0.31-1.791-0.583
					C165.004,238.584,165.806,237.397,166.795,236.826z"/>
				<path id="XMLID_19_" style="fill:#FFFFFF;" d="M166.516,245.178l39.517-22.816c0.835-0.482,1.512-0.262,1.512,0.492
					s-0.677,1.755-1.512,2.237l-39.517,22.815c-0.835,0.482-1.512,0.262-1.512-0.492S165.681,245.66,166.516,245.178z"/>
				<path id="XMLID_18_" style="fill:#FFFFFF;" d="M166.516,250.636l39.517-22.815c0.835-0.482,1.512-0.262,1.512,0.492
					s-0.677,1.755-1.512,2.237l-39.517,22.815c-0.835,0.482-1.512,0.262-1.512-0.492
					C165.004,252.119,165.681,251.118,166.516,250.636z"/>
				<path id="XMLID_17_" style="fill:#FFFFFF;" d="M166.516,256.094l39.517-22.816c0.835-0.482,1.512-0.262,1.512,0.492
					s-0.677,1.755-1.512,2.237l-39.517,22.815c-0.835,0.482-1.512,0.262-1.512-0.492
					C165.004,257.577,165.681,256.576,166.516,256.094z"/>
			</g>
			<g id="XMLID_8_">
				<path id="XMLID_15_" style="fill:#27DEBF;" d="M143.386,250.344l14.876-8.589c1.113-0.643,2.016-0.122,2.016,1.164l0,17.177
					c0,1.285-0.902,2.848-2.016,3.491l-14.876,8.589c-1.113,0.643-2.016,0.122-2.016-1.164l0-17.177
					C141.371,252.55,142.273,250.987,143.386,250.344z"/>
				<path id="XMLID_14_" style="opacity:0.3;fill:#FFFFFF;" d="M143.386,250.344l14.876-8.589c1.113-0.643,2.016-0.122,2.016,1.164
					l0,17.177c0,1.285-0.902,2.848-2.016,3.491l-14.876,8.589c-1.113,0.643-2.016,0.122-2.016-1.164l0-17.177
					C141.371,252.55,142.273,250.987,143.386,250.344z"/>
				<g id="XMLID_10_">
					<path id="XMLID_11_" style="fill:#FFFFFF;" d="M144.663,257.873c-0.325,0-0.631-0.079-0.906-0.237
						c-0.634-0.366-0.983-1.089-0.983-2.034c0-1.718,1.166-3.738,2.655-4.597l0,0c0.819-0.473,1.618-0.531,2.253-0.165
						c0.634,0.366,0.983,1.089,0.983,2.034c0,1.719-1.166,3.738-2.655,4.597C145.545,257.738,145.088,257.873,144.663,257.873z
						 M146.01,252.012c-1.124,0.649-2.073,2.293-2.073,3.589c0,0.505,0.147,0.879,0.401,1.026c0.257,0.147,0.653,0.087,1.09-0.165
						c1.124-0.648,2.073-2.292,2.073-3.589c0-0.505-0.147-0.879-0.401-1.026C146.844,251.7,146.447,251.76,146.01,252.012
						L146.01,252.012z"/>
				</g>
				<path id="XMLID_9_" style="fill:#FFFFFF;" d="M160.278,254.042l-2.834-3.013c-0.284-0.302-0.699-0.441-1.106-0.373
					c-0.408,0.068-0.753,0.333-0.923,0.71l-4.084,9.009l-1.979-1.793c-0.27-0.245-0.635-0.357-0.993-0.309
					c-0.361,0.048-0.682,0.251-0.88,0.557l-6.108,9.493v2.161l7.199-11.04l6.566,5.948l1.059-0.611l-3.959-3.586l4.238-9.349
					l0.122-0.02l3.682,3.914V254.042z"/>
			</g>
		</g>
		<g id="XMLID_28_">
			<g id="XMLID_43_">
				<path id="XMLID_49_" style="fill:#27DEBF;" d="M134.125,324.072l-1.882-1.087c-1.391-0.804-2.519-2.758-2.519-4.364l0-26.93
					c0-1.607,1.128-3.56,2.519-4.364l70.589-40.755c1.391-0.803,3.647-0.803,5.038,0.001l1.882,1.087
					c1.391,0.804,2.519,2.758,2.519,4.364l0,26.93c0,1.607-1.128,3.56-2.519,4.364l-70.589,40.755
					C137.772,324.876,135.516,324.875,134.125,324.072z"/>
				<g>
					<path id="XMLID_48_" style="opacity:0.4;fill:#27DEBF;" d="M134.125,324.072l-1.882-1.087
						c-1.391-0.804-2.519-2.758-2.519-4.364l0-26.93c0-1.607,1.128-3.56,2.519-4.364l70.589-40.755
						c1.391-0.803,3.647-0.803,5.038,0.001l1.882,1.087c1.391,0.804,2.519,2.758,2.519,4.364l0,26.93
						c0,1.607-1.128,3.56-2.519,4.364l-70.589,40.755C137.772,324.876,135.516,324.875,134.125,324.072z"/>
					<path id="XMLID_47_" style="opacity:0.3;fill:#FFFFFF;" d="M134.125,324.072l-1.882-1.087
						c-1.391-0.804-2.519-2.758-2.519-4.364l0-26.93c0-1.607,1.128-3.56,2.519-4.364l70.589-40.755
						c1.391-0.803,3.647-0.803,5.038,0.001l1.882,1.087c1.391,0.804,2.519,2.758,2.519,4.364l0,26.93
						c0,1.607-1.128,3.56-2.519,4.364l-70.589,40.755C137.772,324.876,135.516,324.875,134.125,324.072z"/>
				</g>
				<g>
					<path id="XMLID_46_" style="fill:#27DEBF;" d="M141.37,295.508l-10.909-6.299c-0.455,0.789-0.737,1.678-0.737,2.481l0,26.93
						c0,1.607,1.128,3.561,2.519,4.364l1.882,1.087c1.391,0.804,3.647,0.804,5.038,0.001l2.207-1.275L141.37,295.508z"/>
					<path id="XMLID_45_" style="opacity:0.2;" d="M141.37,295.508l-10.909-6.299c-0.455,0.789-0.737,1.678-0.737,2.481l0,26.93
						c0,1.607,1.128,3.561,2.519,4.364l1.882,1.087c1.391,0.804,3.647,0.804,5.038,0.001l2.207-1.275L141.37,295.508z"/>
				</g>
				<path id="XMLID_44_" style="fill:#27DEBF;" d="M136.644,295.688l0,26.93c0,1.607,1.128,2.258,2.519,1.455l70.589-40.755
					c1.391-0.803,2.519-2.757,2.519-4.364l0-26.93c0-1.607-1.128-2.258-2.519-1.455l-70.589,40.755
					C137.772,292.128,136.644,294.082,136.644,295.688z"/>
			</g>
			<g id="XMLID_38_">
				<path id="XMLID_42_" style="fill:#FFFFFF;" d="M166.795,280.826l24.418-14.098c0.989-0.571,1.791-0.31,1.791,0.583
					c0,0.893-0.802,2.079-1.791,2.651l-24.418,14.098c-0.989,0.571-1.791,0.31-1.791-0.583
					C165.004,282.584,165.806,281.397,166.795,280.826z"/>
				<path id="XMLID_41_" style="fill:#FFFFFF;" d="M166.516,289.178l39.517-22.815c0.835-0.482,1.512-0.262,1.512,0.492
					s-0.677,1.755-1.512,2.237l-39.517,22.815c-0.835,0.482-1.512,0.262-1.512-0.492S165.681,289.66,166.516,289.178z"/>
				<path id="XMLID_40_" style="fill:#FFFFFF;" d="M166.516,294.636l39.517-22.816c0.835-0.482,1.512-0.262,1.512,0.492
					s-0.677,1.755-1.512,2.237l-39.517,22.815c-0.835,0.482-1.512,0.262-1.512-0.492
					C165.004,296.119,165.681,295.118,166.516,294.636z"/>
				<path id="XMLID_39_" style="fill:#FFFFFF;" d="M166.516,300.094l39.517-22.815c0.835-0.482,1.512-0.262,1.512,0.492
					s-0.677,1.755-1.512,2.237l-39.517,22.815c-0.835,0.482-1.512,0.262-1.512-0.492
					C165.004,301.577,165.681,300.576,166.516,300.094z"/>
			</g>
			<g id="XMLID_29_">
				<path id="XMLID_37_" style="fill:#27DEBF;" d="M143.386,294.344l14.876-8.589c1.113-0.643,2.016-0.122,2.016,1.164l0,17.177
					c0,1.285-0.902,2.848-2.016,3.491l-14.876,8.589c-1.113,0.643-2.016,0.122-2.016-1.164l0-17.177
					C141.371,296.55,142.273,294.987,143.386,294.344z"/>
				<path id="XMLID_36_" style="opacity:0.3;fill:#FFFFFF;" d="M143.386,294.344l14.876-8.589c1.113-0.643,2.016-0.122,2.016,1.164
					l0,17.177c0,1.285-0.902,2.848-2.016,3.491l-14.876,8.589c-1.113,0.643-2.016,0.122-2.016-1.164l0-17.177
					C141.371,296.55,142.273,294.987,143.386,294.344z"/>
				<g id="XMLID_32_">
					<path id="XMLID_33_" style="fill:#FFFFFF;" d="M144.663,301.873c-0.325,0-0.631-0.079-0.906-0.237
						c-0.634-0.366-0.983-1.089-0.983-2.034c0-1.718,1.166-3.738,2.655-4.597l0,0c0.819-0.473,1.618-0.531,2.253-0.165
						c0.634,0.366,0.983,1.089,0.983,2.034c0,1.719-1.166,3.738-2.655,4.597C145.545,301.738,145.088,301.873,144.663,301.873z
						 M146.01,296.013c-1.124,0.649-2.073,2.293-2.073,3.589c0,0.505,0.147,0.879,0.401,1.026c0.257,0.147,0.653,0.087,1.09-0.165
						c1.124-0.648,2.073-2.292,2.073-3.589c0-0.505-0.147-0.879-0.401-1.026C146.844,295.7,146.447,295.76,146.01,296.013
						L146.01,296.013z"/>
				</g>
				<path id="XMLID_31_" style="fill:#FFFFFF;" d="M160.278,298.042l-2.834-3.013c-0.284-0.302-0.699-0.441-1.106-0.373
					c-0.408,0.068-0.753,0.333-0.923,0.71l-4.084,9.009l-1.979-1.793c-0.27-0.245-0.635-0.357-0.993-0.309
					c-0.361,0.048-0.682,0.251-0.88,0.557l-6.108,9.493v2.161l7.199-11.04l6.566,5.948l1.059-0.611l-3.959-3.586l4.238-9.349
					l0.122-0.02l3.682,3.914V298.042z"/>
			</g>
		</g>
	</g>
	<g id="XMLID_10314_">
		<g id="XMLID_780_">
			<path id="XMLID_784_" style="fill:#27DEBF;" d="M223.933,270.541l-1.882-1.087c-1.391-0.804-2.519-2.758-2.519-4.364l0-114.248
				c0-1.607,1.128-3.56,2.519-4.364l108.396-62.593c1.391-0.803,3.647-0.803,5.038,0.001l1.882,1.087
				c1.391,0.804,2.519,2.758,2.519,4.364l0,114.248c0,1.607-1.128,3.56-2.519,4.364l-108.396,62.593
				C227.58,271.345,225.324,271.345,223.933,270.541z"/>
			<path id="XMLID_782_" style="fill:#E6E6E6;" d="M231.179,154.66l-10.909-6.299c-0.455,0.789-0.737,1.678-0.737,2.481l0,114.248
				c0,1.607,1.128,3.561,2.519,4.364l1.882,1.087c1.391,0.804,3.647,0.804,5.038,0.001l2.207-1.275L231.179,154.66z"/>
			<g>
				<g>
					<path id="XMLID_770_" style="fill:#27DEBF;" d="M231.179,154.66l-10.91-6.299c-0.455,0.789-0.737,1.678-0.737,2.481v5.277
						l6.92,3.994L231.179,154.66z"/>
				</g>
				<g style="opacity:0.2;">
					<path id="XMLID_51_" d="M231.179,154.66l-10.91-6.299c-0.455,0.789-0.737,1.678-0.737,2.481v5.277l6.92,3.994L231.179,154.66z"
						/>
				</g>
			</g>
			<path id="XMLID_781_" style="fill:#F5F5F5;" d="M226.452,154.84l0,114.248c0,1.607,1.128,2.258,2.519,1.455l108.396-62.593
				c1.391-0.803,2.519-2.757,2.519-4.364l0-114.248c0-1.607-1.128-2.258-2.519-1.454l-108.396,62.593
				C227.58,151.279,226.452,153.233,226.452,154.84z"/>
		</g>
		<g id="XMLID_777_">
			<path id="XMLID_729_" style="fill:#27DEBF;" d="M238.269,159.151c3.916-2.261,7.09-0.428,7.09,4.093
				c0,4.522-3.174,10.02-7.09,12.281c-3.916,2.261-7.09,0.428-7.09-4.093C231.178,166.91,234.353,161.412,238.269,159.151z"/>
			<path id="XMLID_767_" style="fill:#27DEBF;" d="M252.605,153.443l23.322-13.465c1.391-0.803,2.519-0.233,2.519,1.275
				c0,1.507-1.128,3.38-2.519,4.183l-23.322,13.465c-1.391,0.803-2.519,0.233-2.519-1.274
				C250.086,156.12,251.214,154.247,252.605,153.443z"/>
			<path id="XMLID_768_" style="fill:#27DEBF;" d="M251.345,163.132l16.388-9.461c0.696-0.402,1.26-0.116,1.26,0.637
				c0,0.754-0.564,1.69-1.26,2.092l-16.388,9.461c-0.696,0.402-1.26,0.116-1.26-0.637
				C250.086,164.471,250.65,163.534,251.345,163.132z"/>
		</g>
		<path id="XMLID_771_" style="fill:#27DEBF;" d="M233.698,183.621l98.95-57.128c1.391-0.803,2.519-0.152,2.519,1.454v70.594
			c0,1.607-1.128,3.56-2.519,4.364l-98.998,57.157c-1.391,0.803-2.472,0.152-2.471-1.455l-0.002-70.622
			C231.178,186.378,232.306,184.425,233.698,183.621z"/>
		<g id="XMLID_776_">
			<g id="XMLID_772_">
				<path id="XMLID_14217_" style="fill:#FFFFFF;" d="M257.376,230.268c-0.341,0-0.66-0.082-0.947-0.248
					c-0.664-0.383-1.028-1.141-1.028-2.135v-37.846c0-1.82,1.234-3.958,2.81-4.868l49.296-28.46c0.86-0.497,1.7-0.561,2.363-0.176
					c0.664,0.383,1.03,1.141,1.03,2.135v37.846c0,1.82-1.234,3.958-2.81,4.868l-49.296,28.46
					C258.305,230.125,257.823,230.268,257.376,230.268z M308.923,157.453c-0.242,0-0.53,0.09-0.834,0.266l-49.296,28.46
					c-1.208,0.697-2.228,2.465-2.228,3.86v37.846c0,0.552,0.162,0.963,0.447,1.127c0.283,0.163,0.72,0.099,1.2-0.177l49.296-28.46
					c1.208-0.697,2.229-2.465,2.229-3.86V158.67c0-0.552-0.163-0.963-0.448-1.127C309.184,157.483,309.062,157.453,308.923,157.453z
					"/>
			</g>
			<g id="XMLID_773_">
				<path id="XMLID_14214_" style="fill:#FFFFFF;" d="M264.156,198.485c-0.55,0-1.063-0.131-1.521-0.395
					c-1.079-0.624-1.675-1.889-1.675-3.564c0-3.249,2.203-7.067,5.017-8.691l0,0c1.45-0.837,2.843-0.954,3.925-0.331
					c1.08,0.623,1.675,1.889,1.675,3.564c0,3.249-2.204,7.066-5.018,8.691C265.723,198.241,264.906,198.485,264.156,198.485z
					 M266.559,186.843c-2.445,1.412-4.435,4.859-4.435,7.683c0,1.241,0.389,2.149,1.093,2.556c0.707,0.407,1.685,0.29,2.76-0.331
					c2.447-1.412,4.436-4.859,4.436-7.683c0-1.242-0.389-2.149-1.093-2.556C268.614,186.105,267.633,186.223,266.559,186.843
					L266.559,186.843z"/>
			</g>
			<g id="XMLID_774_">
				<path id="XMLID_14213_" style="fill:#FFFFFF;" d="M256.468,224.222l-0.97-0.643l17.135-25.863
					c0.51-0.768,1.548-0.978,2.316-0.471l17.999,11.908l-0.643,0.971l-17.999-11.908c-0.232-0.155-0.549-0.09-0.702,0.143
					L256.468,224.222z"/>
			</g>
			<g id="XMLID_775_">
				<path id="XMLID_14199_" style="fill:#FFFFFF;" d="M283.243,203.364l-1.027-0.548l13.424-25.169
					c0.263-0.492,0.75-0.819,1.303-0.876c0.545-0.056,1.098,0.164,1.455,0.592l12.366,14.825l-0.893,0.745l-12.366-14.825
					c-0.11-0.132-0.276-0.2-0.442-0.18c-0.17,0.018-0.315,0.114-0.395,0.266L283.243,203.364z"/>
			</g>
		</g>
		<g>
			<path id="XMLID_769_" style="fill:#27DEBF;" d="M339.886,89.338c0-1.607-1.128-2.258-2.519-1.454l-108.396,62.593
				c-1.391,0.803-2.519,2.757-2.519,4.364v5.273l113.434-65.492V89.338z"/>
			<path id="XMLID_50_" style="opacity:0.1;" d="M339.886,89.338c0-1.607-1.128-2.258-2.519-1.454l-108.396,62.593
				c-1.391,0.803-2.519,2.757-2.519,4.364v5.273l113.434-65.492V89.338z"/>
		</g>
	</g>
</g>
<g id="Character">
	<g>
		<g id="XMLID_845_">
			<path id="XMLID_14508_" style="fill:#F28F8F;" d="M373.469,212.395c-2.927,3.498-8.266,10.176-11.01,13.619
				c-1.44,1.808-2.258,4.049-2.225,6.36c0.025,1.715,0.49,3.147,2.167,2.416c1.211-0.528,1.981-1.156,3.749-2.899
				c1.59-1.568,7.221-8.337,7.221-8.337s4.317-11.361,6.693-12.082c2.376-0.721,4.023-0.536,4.023-0.536
				C381.221,209.957,377.184,207.956,373.469,212.395z"/>
			<g>
				<path id="XMLID_14506_" style="fill:#27DEBF;" d="M385.505,208.659c-2.931-2.206-7.9-1.631-10.647,1.692
					c-2.012,2.434-6.801,8.373-6.801,8.373s1.372,3.815,6.169,5.525L385.505,208.659z"/>
				<path id="XMLID_52_" style="opacity:0.1;" d="M385.505,208.659c-2.931-2.206-7.9-1.631-10.647,1.692
					c-2.012,2.434-6.801,8.373-6.801,8.373s1.372,3.815,6.169,5.525L385.505,208.659z"/>
			</g>
		</g>
		<g id="XMLID_812_">
			<g id="XMLID_835_">
				<g id="XMLID_836_">
					<path id="XMLID_910_" style="fill:#455A64;" d="M340.382,299.164l-17.495,19.971c-0.509,0.581-1.464,0.185-1.414-0.585
						l1.746-26.647L340.382,299.164z"/>
					<path id="XMLID_857_" style="fill:#263238;" d="M321.473,318.549c-0.051,0.77,0.905,1.166,1.414,0.585l3.416-3.899l0,0
						c-1.667,0.172-3.291-0.601-4.207-2.005l-0.249-0.382L321.473,318.549z"/>
					<path id="XMLID_854_" style="fill:#37474F;" d="M366.021,188.406l-0.938,2.271l-1.143,2.736L323.218,291.9
						c0.967,2.83,3.233,4.995,5.858,6.394c3.991,2.144,8.827,2.531,11.295,0.864l40.422-97.76l2.165-5.238
						C381.367,199.473,364.472,191.752,366.021,188.406z"/>
					<path id="XMLID_850_" style="fill:#455A64;" d="M362.419,197.04l-2.088,5.075c-0.654,1.451,2.091,3.687,5.574,5.505
						c4.62,2.426,10.53,4.114,11.4,2.193l1.53-3.745l0.553-1.34c-0.87,1.921-6.791,0.238-11.411-2.188
						c-3.335-1.746-6-3.892-5.61-5.335l0.006-0.015C362.375,197.137,362.391,197.091,362.419,197.04z"/>
					<path id="XMLID_847_" style="fill:#37474F;" d="M361.909,198.311c-1.526,3.367,15.446,11.058,16.971,7.691l2.106-5.074
						c-1.526,3.367-18.495-4.324-16.969-7.691L361.909,198.311z"/>
					<path id="XMLID_844_" style="fill:#455A64;" d="M366.021,188.406l-2.081,5.008c-1.522,3.295,14.787,10.88,16.852,7.984
						c0.043-0.045,0.076-0.112,0.109-0.178l2.056-5.06C381.367,199.473,364.472,191.752,366.021,188.406z"/>
					<path id="XMLID_840_" style="fill:#263238;" d="M374.836,167.151l-8.815,21.255c-0.664,1.43,2.04,3.66,5.487,5.482
						c4.614,2.442,10.544,4.172,11.45,2.272c0.01-0.005,0.01-0.005,0.016-0.02l8.475-20.447c2.369-4.606-5.801-10.4-11.674-10.741
						C377.578,164.809,375.721,165.427,374.836,167.151z"/>
				</g>
			</g>
		</g>
		<circle id="XMLID_14633_" style="fill:#263238;" cx="381.36" cy="191.309" r="7.119"/>
		<g id="XMLID_14450_">
			<g id="XMLID_14453_">
				<g id="XMLID_14455_">
					<rect id="XMLID_14502_" x="393.393" y="311.763" style="fill:#FFA8A7;" width="5.014" height="8.584"/>
					<polygon id="XMLID_14500_" style="fill:#FFA8A7;" points="381.021,311.305 376.01,311.477 375.759,302.393 380.77,302.221 
											"/>
					<path id="XMLID_14498_" style="fill:#37474F;" d="M398.078,243.717c0,4.788,0.619,33.805,0.619,33.805
						c0.117,1.378,1.409,3.918,1.129,9.21c-0.38,7.189-1.001,25.877-1.001,25.877s-2.351,2.331-5.671,0
						c0,0-4.54-25.852-5.439-32.976c-0.784-6.217-2.115-23.108-2.115-23.108l-4.646,19.882c0,0,0.818,4.674,0.997,7.972
						c0.18,3.299-0.851,20.565-0.851,20.565s-2.549,1.762-5.456,0.208c0,0-4.028-26.051-4.545-29.03
						c-0.517-2.979,3.526-32.405,3.526-32.405H398.078z"/>
					<path id="XMLID_14496_" style="fill:#27DEBF;" d="M393.26,209.078c2.185,0.388,3.927,2.044,4.406,4.211
						c0.238,1.076,0.412,2.359,0.412,3.807v9.825v16.797c-3.516,3.825-15.775,5.607-23.453,0c0,0,0.151-23.514,0.726-27.377
						c0.999-6.711,4.212-9.105,7.439-8.855l7.74,1.107L393.26,209.078z"/>
					<g id="XMLID_14463_">
						<g id="XMLID_14480_">
							<path id="XMLID_14493_" style="fill:#263238;" d="M393.665,196.371c0,0-1.153,5.42-1.616,6.31
								c-0.463,0.891-1.419,1.143-1.419,1.143l0.081-3.812L393.665,196.371z"/>
							<path id="XMLID_14491_" style="fill:#263238;" d="M392.218,188.607c0,0,1.242-0.213,2.211,0.777
								c0.949,0.971,0.419,4.01-0.763,6.987l-2.173,0.249L392.218,188.607z"/>
							<path id="XMLID_14489_" style="fill:#FFA8A7;" d="M390.841,196.622c0.436,0.26,1.057-0.577,1.595-1.139
								c0.537-0.562,2.291-1.33,3.166,0.513c0.892,1.879-0.772,4.362-2.153,4.795c-2.38,0.747-2.737-0.779-2.737-0.779l-0.182,8.584
								c0,0-1.558,3.813-5.778,4.385c-4.219,0.572-3.351-2.907-1.965-4.612l0.007-2.613c0,0-2.156,0.327-3.208,0.165
								c-1.75-0.271-2.851-1.652-3.382-3.546c-0.853-3.043-1.177-5.5-0.453-11.484c0.793-6.559,8.422-6.628,12.542-4.035
								C392.412,189.45,390.841,196.622,390.841,196.622z"/>
							<path id="XMLID_14486_" style="fill:#263238;" d="M390.841,197.355c0.219,0.004,1.052-1.378,1.595-1.872
								c0.752-0.684-0.218-6.876-0.218-6.876s0.722-1.539-0.725-3.132c-1.03-1.133-2.75-1.259-5.688-1.721
								c-1.542-0.242-3.878-0.674-5.417-0.96c-1.838-0.342-3.359-0.703-4.657,0.424c-1.01,0.878-1.445,2.429-0.901,3.651
								c0.128,0.287,0.312,0.546,0.522,0.779c0.372,0.414,0.793,0.739,1.323,0.911c0,0,0.802,0.711,3.589,1.051
								c2.788,0.34,7.13-0.065,7.724-0.146c0.808-0.111,0.981,0.673,1.417,2.813C389.787,194.156,390.104,197.341,390.841,197.355z"
								/>
							<path id="XMLID_14484_" style="fill:#263238;" d="M392.213,189.088l2.634-1.414c-0.374-0.755-1.267-1.05-1.994-0.66
								C392.126,187.405,391.839,188.333,392.213,189.088z"/>
							<path id="XMLID_14482_" style="fill:#F28F8F;" d="M382.793,205.757c0,0,3.907-0.787,5.273-1.513
								c0.914-0.486,1.667-1.328,1.888-1.868c0,0-0.256,1.159-1.073,2.204c-0.999,1.277-6.088,2.217-6.088,2.217L382.793,205.757z"
								/>
						</g>
						<g id="XMLID_14465_">
							<path id="XMLID_14479_" style="fill:#263238;" d="M383.732,195.645c0,0.449,0.351,0.813,0.783,0.811
								c0.432-0.001,0.783-0.366,0.783-0.816c0-0.449-0.35-0.812-0.783-0.811C384.083,194.831,383.732,195.196,383.732,195.645z"/>
							<path id="XMLID_14477_" style="fill:#263238;" d="M384.563,192.689l1.675,0.924c0.247-0.481,0.072-1.078-0.39-1.333
								C385.385,192.025,384.81,192.208,384.563,192.689z"/>
							<path id="XMLID_14475_" style="fill:#F28F8F;" d="M383.147,201.053l-1.787,0.671c0.177,0.512,0.72,0.777,1.214,0.592
								C383.067,202.131,383.324,201.566,383.147,201.053z"/>
							<path id="XMLID_14472_" style="fill:#263238;" d="M376.751,193.341l1.527-1.176c-0.312-0.437-0.906-0.528-1.328-0.204
								C376.529,192.286,376.439,192.904,376.751,193.341z"/>
							<path id="XMLID_14470_" style="fill:#263238;" d="M377.221,195.422c0,0.449,0.351,0.813,0.783,0.811
								c0.432-0.001,0.783-0.366,0.783-0.816c0-0.449-0.351-0.812-0.783-0.811C377.571,194.608,377.221,194.973,377.221,195.422z"/>
							<polygon id="XMLID_14468_" style="fill:#F28F8F;" points="381.21,194.68 380.953,199.388 378.494,198.55 							"/>
						</g>
					</g>
					<path id="XMLID_14461_" style="fill:#263238;" d="M393.393,317.872v-0.717c-0.48,0.209-1.595,4.462-3.584,6.277
						c-1.582,1.443-3.739,3.109-4.288,4.717c-0.571,1.673,3.005,2.596,4.483,2.335c1.717-0.304,4.693-1.513,5.44-2.634
						c0.747-1.121,1.097-2.774,1.704-3.595c0.607-0.821,2.006-1.738,2.335-2.689c0.18-0.522-0.034-1.666-0.287-2.632
						c-0.232-0.887-0.484-1.862-0.787-1.778c-0.001,0.108,0,0.547,0,0.547c-0.364,0.403-1.371,0.804-2.507,0.847
						C395.166,318.577,393.387,318.431,393.393,317.872z"/>
					<path id="XMLID_14457_" style="fill:#263238;" d="M375.957,309.931c-0.26,0.009-0.472,0.376-1.047,0.998
						c-0.694,0.751-1.829,1.562-2.95,2.122c-1.878,0.94-5.528,2.386-7.18,3.13c-1.032,0.465-0.984,1.712,0.083,2.421
						c1.067,0.71,3.643,1.221,6.736,0.529c1.685-0.377,3.878-1.933,5.266-1.849c1.388,0.084,3.986,0.064,5.011-0.642
						c1.025-0.706,0.615-2.215,0.325-3.511c-0.316-1.415-0.768-3.579-1.237-3.483l0.015,0.445c-0.603,0.913-3.672,1.286-4.996,0.614
						L375.957,309.931z"/>
				</g>
			</g>
		</g>
		<path id="XMLID_14441_" style="fill:#263238;" d="M385.601,256.526c0,0-4.008-1.129-6.982-4.004c0,0,1.347,2.523,5.354,4.87
			l-1.506,12.821L385.601,256.526z"/>
		<g id="XMLID_813_">
			<path id="XMLID_816_" style="fill:#FFA8A7;" d="M357.531,237.822c1.104,0.284,2.17,0.194,3.691,0.717
				c1.34,0.461,1.901,0.627,3.219,0.546c1.429-0.088,5.166-1.859,8.482-3.869c3.912-2.371,7.965-6.688,9.443-8.78
				c3-4.247,6.323-10.943,7.91-13.504c1.588-2.561,3.094-2.831,4.858-2.756c2.073,0.087,3.4,1.986,1.578,5.929
				c-1.822,3.943-5.759,10.559-9.533,15.122c-1.829,2.212-5.055,5.493-10.071,8.559c-3.504,2.142-6.581,3.204-10.476,4.508
				c-1.061,0.355-1.761,0.882-3.705,1.798c-0.784,0.369-1.632,0.799-2.49,0.917c-1.089,0.15-2.2,0.177-3.289,0.011
				c-1.371-0.209-2.71-0.735-3.779-1.618c-0.589-0.486-1.096-1.084-1.401-1.784c-0.305-0.7-0.395-1.506-0.169-2.235
				c0.046-0.148,0.107-0.297,0.22-0.403c0.204-0.191,0.515-0.194,0.794-0.184c1.561,0.054,3.236,0.344,4.787,0.234
				c1.311-0.094,2.224-0.341,2.036-0.526c-0.187-0.185-0.954-0.076-2.007-0.529c-1.006-0.433-1.735-1.456-1.448-2.001
				C356.471,237.429,356.427,237.538,357.531,237.822z"/>
		</g>
		<path id="XMLID_848_" style="fill:#27DEBF;" d="M394.458,209.44c1.599,0.078,3.659,1.051,3.62,3.774
			c-0.039,2.723-4.221,10.632-7.447,15.149c0,0-5.029-0.323-7.673-4.114c0,0,4.701-7.476,5.978-9.863
			C390.079,212.247,392.127,209.327,394.458,209.44z"/>
		<path id="XMLID_817_" style="fill:#FFA8A7;" d="M352.595,220.852c0,0,2.112-1.051,4.828-0.605c1.314,0.216,1.32,4.604-2.908,5.99
			c-2.751,0.902-4.403,0.504-5.291,2.768c0,0-1.782-0.237-1.378-2.768c0.404-2.53,1.509-4.837,3.353-7.014
			c1.213-1.431,1.293-2.636,1.888-2.228c0.673,0.461,0.362,1.791,0.362,1.791L352.595,220.852z"/>
	</g>
</g>
</svg>
